<svg width="137" height="30" viewBox="0 0 137 30" fill="none" xmlns="http://www.w3.org/2000/svg">
<path d="M0.985474 0.749817H10.4849C13.3579 0.749817 14.7944 2.10908 14.7944 4.82761V14.466C14.7944 17.1846 13.3579 18.5438 10.4849 18.5438H5.15594V29.7578H0.985474V0.749817ZM10.6239 13.8173V5.47635C10.6239 4.92029 10.5312 4.56503 10.3459 4.41056C10.1605 4.22521 9.7898 4.13253 9.23374 4.13253H5.15594V15.2075H9.23374C9.7898 15.2075 10.1605 15.1148 10.3459 14.9294C10.5312 14.7441 10.6239 14.3734 10.6239 13.8173Z" fill="white"/>
<path d="M22.6687 26.375H29.8511V29.7578H18.4982V0.749817H22.6687V26.375Z" fill="white"/>
<path d="M43.0938 29.7578L41.9354 23.0387H35.8187L34.7529 29.7578H30.5824L35.726 0.749817H41.7964L47.3107 29.7578H43.0938ZM36.3284 19.656H41.3793L38.738 4.36423L36.3284 19.656Z" fill="white"/>
<path d="M58.4674 29.7578H54.2506V20.5827L48.0412 0.749817H52.3044L56.3358 16.7366L60.1356 0.749817H64.3987L58.4674 20.5827V29.7578Z" fill="white"/>
<path d="M84.0398 0.749817H87.8859V29.7578H83.6691L77.5524 8.81273V29.7578H73.7063V0.749817H78.1084L84.0398 21.0925V0.749817Z" fill="white"/>
<path d="M96.8364 0.749817H101.98C104.853 0.749817 106.29 2.10908 106.29 4.82761V25.68C106.29 28.3985 104.853 29.7578 101.98 29.7578H96.8364C93.9326 29.7578 92.4806 28.3985 92.4806 25.68V4.82761C92.4806 2.10908 93.9326 0.749817 96.8364 0.749817ZM102.119 25.0312V5.47635C102.119 4.92029 102.026 4.56503 101.841 4.41056C101.656 4.22521 101.285 4.13253 100.729 4.13253H98.0413C97.4852 4.13253 97.1145 4.22521 96.9291 4.41056C96.7747 4.56503 96.6974 4.92029 96.6974 5.47635V25.0312C96.6974 25.5873 96.7747 25.958 96.9291 26.1434C97.1145 26.2978 97.4852 26.375 98.0413 26.375H100.729C101.285 26.375 101.656 26.2978 101.841 26.1434C102.026 25.958 102.119 25.5873 102.119 25.0312Z" fill="white"/>
<path d="M132.034 0.749817H136.251L131.617 29.7578H125.825L122.581 7.97864L119.384 29.7578H113.591L108.958 0.749817H113.267L116.511 25.958L120.264 0.749817H124.898L128.652 25.958L132.034 0.749817Z" fill="white"/>
</svg>
